<svg width="14" height="17" viewBox="0 0 14 17" fill="none" xmlns="http://www.w3.org/2000/svg">
<path d="M9.41553 2.71387C9.93018 2.09961 10.2871 1.26123 10.2871 0.414551C10.2871 0.29834 10.2788 0.182129 10.2539 0.0908203C9.43213 0.124023 8.43604 0.638672 7.83838 1.33594C7.37354 1.86719 6.94189 2.71387 6.94189 3.56055C6.94189 3.69336 6.9585 3.81787 6.9751 3.85938C7.0249 3.86768 7.10791 3.88428 7.19092 3.88428C7.93799 3.88428 8.86768 3.38623 9.41553 2.71387ZM10.0049 4.05859C8.75977 4.05859 7.75537 4.81396 7.10791 4.81396C6.41895 4.81396 5.52246 4.1084 4.44336 4.1084C2.39307 4.1084 0.317871 5.80176 0.317871 8.98926C0.317871 10.9814 1.08154 13.0815 2.03613 14.4346C2.84961 15.5801 3.56348 16.5181 4.58447 16.5181C5.60547 16.5181 6.05371 15.8457 7.30713 15.8457C8.59375 15.8457 8.87598 16.5015 10.0049 16.5015C11.1172 16.5015 11.856 15.4805 12.5532 14.4761C13.3418 13.3223 13.6655 12.2017 13.6821 12.1436C13.6157 12.127 11.4824 11.2554 11.4824 8.82324C11.4824 6.71484 13.1592 5.76855 13.2505 5.69385C12.1548 4.1084 10.4697 4.05859 10.0049 4.05859Z" fill="white"/>
</svg>
