<svg width="23" height="11" viewBox="0 0 23 11" fill="none" xmlns="http://www.w3.org/2000/svg">
<path d="M4.84375 10.8608H16.5405C17.7856 10.8608 18.8403 10.7437 19.5874 9.99658C20.3345 9.24951 20.4443 8.20215 20.4443 6.94971V4.47412C20.4443 3.229 20.3345 2.18164 19.5874 1.43457C18.8403 0.6875 17.7856 0.570312 16.5405 0.570312H4.8291C3.59863 0.570312 2.54395 0.6875 1.79688 1.44189C1.0498 2.18896 0.939941 3.229 0.939941 4.45947V6.94971C0.939941 8.20215 1.0498 9.24951 1.79688 9.99658C2.54395 10.7437 3.59863 10.8608 4.84375 10.8608ZM4.646 9.68164C3.8916 9.68164 3.10059 9.5791 2.65381 9.13232C2.21436 8.69287 2.11914 7.90918 2.11914 7.15479V4.29834C2.11914 3.52197 2.21436 2.73828 2.65381 2.2915C3.10059 1.85205 3.89893 1.74951 4.66797 1.74951H16.7383C17.4927 1.74951 18.2837 1.85205 18.7305 2.29883C19.1699 2.73828 19.2651 3.52197 19.2651 4.27637V7.15479C19.2651 7.90918 19.1699 8.69287 18.7305 9.13232C18.2837 9.5791 17.4927 9.68164 16.7383 9.68164H4.646ZM4.35303 8.75146H17.0386C17.5513 8.75146 17.8369 8.69287 18.0566 8.47314C18.2764 8.25342 18.3423 7.96777 18.3423 7.45508V3.97607C18.3423 3.46338 18.269 3.17773 18.0566 2.95801C17.8369 2.73828 17.5513 2.67969 17.0386 2.67969H4.35303C3.84033 2.67969 3.55469 2.73828 3.33496 2.95801C3.12256 3.17773 3.04932 3.46338 3.04932 3.97607V7.45508C3.04932 7.96777 3.12256 8.25342 3.33496 8.47314C3.55469 8.69287 3.84033 8.75146 4.35303 8.75146ZM21.4404 7.60889C22.0264 7.57227 22.8027 6.83252 22.8027 5.71191C22.8027 4.59863 22.0264 3.85889 21.4404 3.82227V7.60889Z" fill="white"/>
</svg>
