<svg width="16" height="15" viewBox="0 0 16 15" fill="none" xmlns="http://www.w3.org/2000/svg">
<path d="M3.82471 7.47021H11.9253C13.8149 7.47021 15.353 6.12256 15.353 4.13037C15.353 2.13818 13.8149 0.790527 11.9253 0.790527H3.82471C1.93506 0.790527 0.389648 2.13818 0.389648 4.13037C0.389648 6.12256 1.93506 7.47021 3.82471 7.47021ZM3.82471 6.36426C2.59424 6.36426 1.49561 5.46338 1.49561 4.13037C1.49561 2.79736 2.59424 1.89648 3.82471 1.89648H11.9253C13.1484 1.89648 14.2471 2.79736 14.2471 4.13037C14.2471 5.46338 13.1484 6.36426 11.9253 6.36426H3.82471ZM3.82471 5.86621C4.7915 5.87354 5.56055 5.08252 5.56787 4.11572C5.5752 3.15625 4.7915 2.38721 3.82471 2.38721C2.85791 2.38721 2.08887 3.16357 2.08887 4.12305C2.08887 5.08984 2.85791 5.85889 3.82471 5.86621ZM3.52441 14.6187H12.2256C13.9614 14.6187 15.353 13.4028 15.353 11.6084C15.353 9.81396 13.9614 8.59814 12.2256 8.59814H3.52441C1.78857 8.59814 0.389648 9.81396 0.389648 11.6084C0.389648 13.4028 1.78857 14.6187 3.52441 14.6187ZM12.4087 13.5127C11.354 13.5054 10.5117 12.6558 10.5117 11.6011C10.5117 10.5537 11.354 9.7041 12.4087 9.7041C13.4634 9.7041 14.3203 10.5464 14.313 11.5938C14.3057 12.6558 13.4634 13.52 12.4087 13.5127Z" fill="white"/>
</svg>
