<svg width="14" height="15" viewBox="0 0 14 15" fill="none" xmlns="http://www.w3.org/2000/svg">
<path d="M10.2583 8.62354V1.12354C10.2583 0.647461 9.91406 0.259277 9.41602 0.259277C9.07178 0.259277 8.84473 0.413086 8.46387 0.764648L5.51953 3.49658C5.48291 3.52588 5.43896 3.55518 5.39502 3.55518H5.17529L10.2583 8.62354ZM12.7852 13.9482C13.0049 14.168 13.3711 14.168 13.5835 13.9482C13.8032 13.7212 13.8032 13.3696 13.5835 13.1499L1.04443 0.61084C0.824707 0.391113 0.458496 0.391113 0.23877 0.61084C0.019043 0.823242 0.019043 1.19678 0.23877 1.40918L12.7852 13.9482ZM3.0293 9.69287H5.1167C5.18994 9.69287 5.24854 9.71484 5.2998 9.75879L8.46387 12.7178C8.80811 13.04 9.08643 13.1792 9.42334 13.1792C9.8042 13.1792 10.0898 12.9888 10.207 12.5713L1.85742 4.229C1.64502 4.4707 1.53516 4.83691 1.53516 5.32764V8.13281C1.53516 9.19482 2.0332 9.69287 3.0293 9.69287Z" fill="white"/>
</svg>
