<svg width="15" height="16" viewBox="0 0 15 16" fill="none" xmlns="http://www.w3.org/2000/svg">
<path d="M7.5 15.1826C11.5869 15.1826 14.9707 11.7915 14.9707 7.71191C14.9707 3.625 11.5796 0.241211 7.49268 0.241211C3.41309 0.241211 0.0292969 3.625 0.0292969 7.71191C0.0292969 11.7915 3.42041 15.1826 7.5 15.1826ZM7.5 10.2095C5.30273 10.2095 3.60352 10.9932 2.86377 11.8721C1.875 10.7734 1.28174 9.31592 1.28174 7.71191C1.28174 4.25488 4.03564 1.48633 7.49268 1.48633C10.9497 1.48633 13.7183 4.25488 13.7256 7.71191C13.7329 9.31592 13.1323 10.7734 12.1436 11.8794C11.4038 11.0005 9.70459 10.2095 7.5 10.2095ZM7.5 8.96436C8.90625 8.979 10.0122 7.77783 10.0122 6.20312C10.0122 4.72363 8.90625 3.49316 7.5 3.49316C6.09375 3.49316 4.98047 4.72363 4.98779 6.20312C4.99512 7.77783 6.09375 8.94971 7.5 8.96436Z" fill="white"/>
</svg>
